<?xml version="1.0" standalone="no"?><!-- Generator: Gravit.io --><svg xmlns="http://www.w3.org/2000/svg" xmlns:xlink="http://www.w3.org/1999/xlink" style="isolation:isolate" viewBox="-204.025 -299.733 286.025 286.025" width="80" height="80"><path d=" M -172.562 -299.733 L 50.537 -299.733 C 67.902 -299.733 82 -285.635 82 -268.27 L 82 -45.171 C 82 -27.806 67.902 -13.708 50.537 -13.708 L -172.562 -13.708 C -189.927 -13.708 -204.025 -27.806 -204.025 -45.171 L -204.025 -268.27 C -204.025 -285.635 -189.927 -299.733 -172.562 -299.733 Z  M -57.693 -82.207 L -71.095 -87.813 C -71.337 -87.916 -71.613 -87.968 -71.871 -87.968 L -76.96 -88.02 L -80.323 -89.434 L -108.541 -89.434 C -114.081 -89.414 -119.151 -92.544 -121.616 -97.506 C -121.874 -98.024 -121.667 -98.645 -121.15 -98.886 C -120.633 -99.145 -120.012 -98.938 -119.77 -98.42 C -117.66 -94.161 -113.312 -91.471 -108.559 -91.487 L -70.974 -91.487 C -69.957 -91.487 -69.094 -92.211 -68.939 -93.211 C -68.767 -94.212 -69.353 -95.178 -70.302 -95.505 L -112.267 -110.167 C -113.647 -113.392 -118.735 -123.793 -127.032 -123.793 C -131.413 -123.793 -134.242 -121.706 -135.38 -120.688 L -141.762 -119.343 C -142.642 -119.153 -143.297 -118.429 -143.4 -117.532 C -143.487 -116.635 -143.004 -115.79 -142.176 -115.427 L -133.534 -111.581 L -133.69 -101.439 C -133.69 -101.111 -133.621 -100.801 -133.483 -100.507 C -131.068 -95.505 -127.894 -90.935 -124.03 -86.933 C -120.167 -82.931 -115.717 -79.602 -110.784 -77.015 L -106.644 -74.842 C -106.644 -74.842 -106.627 -74.842 -106.627 -74.825 C -106.61 -74.825 -106.61 -74.807 -106.61 -74.807 L -103.367 -73.203 L -103.143 -73.1 L -105.437 -67.873 L -112.371 -67.873 C -113.509 -67.873 -114.44 -66.942 -114.44 -65.804 C -114.44 -64.665 -113.509 -63.734 -112.371 -63.734 L -89.568 -63.734 C -88.43 -63.734 -87.498 -64.665 -87.498 -65.804 C -87.498 -66.942 -88.43 -67.873 -89.568 -67.873 L -91.724 -67.873 L -88.723 -74.238 C -88.275 -75.204 -88.619 -76.342 -89.534 -76.894 L -93.777 -79.43 C -95.277 -78.809 -96.726 -78.067 -98.106 -77.205 L -93.259 -74.307 L -96.295 -67.873 L -100.883 -67.873 L -98.52 -73.255 C -98.072 -74.273 -98.503 -75.446 -99.503 -75.946 L -99.796 -76.084 L -101.884 -77.119 C -96.105 -81.517 -89.033 -83.914 -81.737 -83.932 L -72.302 -83.845 L -67.231 -81.724 L -59.28 -78.395 C -58.228 -77.947 -57.02 -78.447 -56.572 -79.499 C -56.261 -80.223 -56.417 -81.034 -56.882 -81.603 C -57.107 -81.862 -57.383 -82.069 -57.693 -82.207 L -57.693 -82.207 L -57.693 -82.207 Z  M 38.702 -257.656 C 32.982 -236.788 21.496 -220.682 7.489 -208.149 C -11.578 -203.322 -31.156 -209.25 -31.156 -209.25 C -33.402 -209.769 -35.669 -208.469 -36.355 -206.269 C -37.041 -204.068 -35.914 -201.71 -33.77 -200.862 C -33.77 -200.862 -21.669 -196.946 -6.267 -197.425 C -15.106 -191.489 -24.5 -186.422 -34.316 -182.296 C -57.287 -172.553 -76.297 -168.963 -85.89 -167.585 C -61.318 -201.175 -25.634 -230.649 21.655 -244.863 C 24.005 -245.398 25.496 -247.715 25.008 -250.076 C 24.521 -252.436 22.234 -253.973 19.864 -253.532 C 19.584 -253.512 19.307 -253.466 19.036 -253.396 C -29.489 -238.817 -66.29 -208.686 -91.8 -174.454 C -91.888 -182.622 -90.339 -195.41 -81.763 -209.8 C -68.046 -232.797 -35.984 -256.401 38.702 -257.651 L 38.702 -257.656 L 38.702 -257.656 L 38.702 -257.656 Z  M -144.607 -130.317 L -56.596 -130.317 C -46.831 -130.317 -38.994 -122.48 -38.994 -112.715 L -38.994 -73.11 C -38.994 -63.345 -46.831 -55.508 -56.596 -55.508 L -144.607 -55.508 C -154.371 -55.508 -162.209 -63.345 -162.209 -73.11 L -162.209 -112.715 C -162.209 -122.48 -154.371 -130.317 -144.607 -130.317 L -144.607 -130.317 L -144.607 -130.317 Z  M 44.617 -266.734 C -36.415 -266.734 -73.459 -240.933 -89.327 -214.341 C -103.748 -190.156 -100.601 -166.842 -99.91 -162.635 C -102.157 -159.255 -104.312 -155.815 -106.375 -152.32 L -136.224 -152.32 C -138.644 -152.201 -140.536 -150.137 -140.417 -147.712 C -140.299 -145.292 -138.235 -143.4 -135.81 -143.519 L -65.401 -143.519 C -63.817 -143.501 -62.343 -144.328 -61.533 -145.701 C -60.743 -147.074 -60.743 -148.764 -61.533 -150.137 C -62.343 -151.51 -63.822 -152.337 -65.401 -152.32 L -96.069 -152.32 C -94.951 -154.142 -93.816 -156.016 -92.627 -157.82 C -86.647 -158.437 -60.363 -161.689 -30.888 -174.186 C 2.446 -188.312 38.87 -214.407 48.876 -261.37 C 49.17 -262.666 48.86 -264.026 48.031 -265.066 C 47.199 -266.104 45.947 -266.716 44.617 -266.734 L 44.617 -266.734 L 44.617 -266.734 Z  M -144.607 -139.118 C -159.128 -139.118 -171.01 -127.237 -171.01 -112.715 L -171.01 -73.11 C -171.01 -58.588 -159.128 -46.707 -144.607 -46.707 L -56.596 -46.707 C -42.074 -46.707 -30.193 -58.588 -30.193 -73.11 L -30.193 -112.715 C -30.193 -127.237 -42.074 -139.118 -56.596 -139.118 L -144.607 -139.118 L -144.607 -139.118 L -144.607 -139.118 Z " fill-rule="evenodd" fill="currentColor"/></svg>
