<?xml version="1.0" standalone="no"?><!-- Generator: Gravit.io --><svg xmlns="http://www.w3.org/2000/svg" xmlns:xlink="http://www.w3.org/1999/xlink" style="isolation:isolate" viewBox="253.148 80 655.273 220.027" width="655.273" height="220.027"><g><path d=" M 464.87 293.277 L 464.87 293.277 Q 464.87 295.827 463.22 297.477 L 463.22 297.477 L 463.22 297.477 Q 461.57 299.127 459.02 299.127 L 459.02 299.127 L 459.02 299.127 Q 456.47 299.127 454.82 297.477 L 454.82 297.477 L 454.82 297.477 Q 453.171 295.827 453.171 293.277 L 453.171 293.277 L 453.171 187.827 L 453.171 187.827 Q 453.171 185.277 454.82 183.627 L 454.82 183.627 L 454.82 183.627 Q 456.47 181.977 459.02 181.977 L 459.02 181.977 L 489.02 181.977 L 489.02 181.977 Q 499.97 181.977 508.595 186.852 L 508.595 186.852 L 508.595 186.852 Q 517.22 191.727 522.02 200.352 L 522.02 200.352 L 522.02 200.352 Q 526.82 208.977 526.82 220.077 L 526.82 220.077 L 526.82 220.077 Q 526.82 231.027 522.02 239.577 L 522.02 239.577 L 522.02 239.577 Q 517.22 248.127 508.595 252.927 L 508.595 252.927 L 508.595 252.927 Q 499.97 257.727 489.02 257.727 L 489.02 257.727 L 464.87 257.727 L 464.87 293.277 Z  M 489.02 246.477 L 489.02 246.477 Q 496.671 246.477 502.671 243.102 L 502.671 243.102 L 502.671 243.102 Q 508.671 239.727 512.046 233.727 L 512.046 233.727 L 512.046 233.727 Q 515.421 227.727 515.421 220.077 L 515.421 220.077 L 515.421 220.077 Q 515.421 212.277 512.046 206.202 L 512.046 206.202 L 512.046 206.202 Q 508.671 200.127 502.671 196.677 L 502.671 196.677 L 502.671 196.677 Q 496.671 193.227 489.02 193.227 L 489.02 193.227 L 464.87 193.227 L 464.87 246.477 L 489.02 246.477 Z  M 540.47 187.677 L 540.47 187.677 Q 540.47 185.127 542.12 183.552 L 542.12 183.552 L 542.12 183.552 Q 543.77 181.977 546.171 181.977 L 546.171 181.977 L 546.171 181.977 Q 548.72 181.977 550.296 183.552 L 550.296 183.552 L 550.296 183.552 Q 551.87 185.127 551.87 187.677 L 551.87 187.677 L 551.87 273.177 L 551.87 273.177 Q 551.87 279.627 554.495 283.677 L 554.495 283.677 L 554.495 283.677 Q 557.12 287.727 561.171 287.727 L 561.171 287.727 L 564.921 287.727 L 564.921 287.727 Q 567.171 287.727 568.52 289.302 L 568.52 289.302 L 568.52 289.302 Q 569.871 290.877 569.871 293.427 L 569.871 293.427 L 569.871 293.427 Q 569.871 295.977 567.996 297.552 L 567.996 297.552 L 567.996 297.552 Q 566.121 299.127 563.12 299.127 L 563.12 299.127 L 561.171 299.127 L 561.171 299.127 Q 552.02 299.127 546.245 291.852 L 546.245 291.852 L 546.245 291.852 Q 540.47 284.577 540.47 273.177 L 540.47 273.177 L 540.47 187.677 Z  M 654.47 217.077 L 654.47 217.077 Q 657.02 217.077 658.671 218.652 L 658.671 218.652 L 658.671 218.652 Q 660.32 220.227 660.32 222.777 L 660.32 222.777 L 660.32 293.277 L 660.32 293.277 Q 660.32 295.827 658.671 297.477 L 658.671 297.477 L 658.671 297.477 Q 657.02 299.127 654.47 299.127 L 654.47 299.127 L 654.47 299.127 Q 651.921 299.127 650.345 297.477 L 650.345 297.477 L 650.345 297.477 Q 648.77 295.827 648.77 293.277 L 648.77 293.277 L 648.77 288.177 L 648.77 288.177 Q 643.82 293.727 636.77 296.877 L 636.77 296.877 L 636.77 296.877 Q 629.72 300.027 621.47 300.027 L 621.47 300.027 L 621.47 300.027 Q 610.82 300.027 602.345 295.527 L 602.345 295.527 L 602.345 295.527 Q 593.871 291.027 589.07 282.402 L 589.07 282.402 L 589.07 282.402 Q 584.27 273.777 584.27 261.777 L 584.27 261.777 L 584.27 222.777 L 584.27 222.777 Q 584.27 220.377 585.921 218.727 L 585.921 218.727 L 585.921 218.727 Q 587.57 217.077 589.97 217.077 L 589.97 217.077 L 589.97 217.077 Q 592.52 217.077 594.171 218.727 L 594.171 218.727 L 594.171 218.727 Q 595.82 220.377 595.82 222.777 L 595.82 222.777 L 595.82 261.777 L 595.82 261.777 Q 595.82 275.127 603.246 282.102 L 603.246 282.102 L 603.246 282.102 Q 610.671 289.077 622.671 289.077 L 622.671 289.077 L 622.671 289.077 Q 630.02 289.077 635.945 286.227 L 635.945 286.227 L 635.945 286.227 Q 641.871 283.377 645.32 278.352 L 645.32 278.352 L 645.32 278.352 Q 648.77 273.327 648.77 267.177 L 648.77 267.177 L 648.77 222.777 L 648.77 222.777 Q 648.77 220.227 650.345 218.652 L 650.345 218.652 L 650.345 218.652 Q 651.921 217.077 654.47 217.077 L 654.47 217.077 Z  M 773.72 216.177 L 773.72 216.177 Q 782.57 216.177 789.395 220.377 L 789.395 220.377 L 789.395 220.377 Q 796.22 224.577 800.046 232.302 L 800.046 232.302 L 800.046 232.302 Q 803.871 240.027 803.871 250.227 L 803.871 250.227 L 803.871 293.427 L 803.871 293.427 Q 803.871 295.977 802.296 297.552 L 802.296 297.552 L 802.296 297.552 Q 800.72 299.127 798.171 299.127 L 798.171 299.127 L 798.171 299.127 Q 795.621 299.127 793.97 297.552 L 793.97 297.552 L 793.97 297.552 Q 792.32 295.977 792.32 293.427 L 792.32 293.427 L 792.32 250.227 L 792.32 250.227 Q 792.32 239.577 786.845 233.352 L 786.845 233.352 L 786.845 233.352 Q 781.371 227.127 772.52 227.127 L 772.52 227.127 L 772.52 227.127 Q 763.07 227.127 757.22 233.427 L 757.22 233.427 L 757.22 233.427 Q 751.371 239.727 751.52 249.927 L 751.52 249.927 L 751.52 250.227 L 751.52 293.427 L 751.52 293.427 Q 751.52 295.977 749.945 297.552 L 749.945 297.552 L 749.945 297.552 Q 748.371 299.127 745.82 299.127 L 745.82 299.127 L 745.82 299.127 Q 743.27 299.127 741.621 297.552 L 741.621 297.552 L 741.621 297.552 Q 739.97 295.977 739.97 293.427 L 739.97 293.427 L 739.97 250.227 L 739.97 250.227 Q 739.97 239.577 734.496 233.352 L 734.496 233.352 L 734.496 233.352 Q 729.02 227.127 720.171 227.127 L 720.171 227.127 L 720.171 227.127 Q 710.871 227.127 704.871 233.277 L 704.871 233.277 L 704.871 233.277 Q 698.871 239.427 698.871 249.027 L 698.871 249.027 L 698.871 293.427 L 698.871 293.427 Q 698.871 295.977 697.296 297.552 L 697.296 297.552 L 697.296 297.552 Q 695.72 299.127 693.171 299.127 L 693.171 299.127 L 693.171 299.127 Q 690.621 299.127 688.97 297.552 L 688.97 297.552 L 688.97 297.552 Q 687.32 295.977 687.32 293.427 L 687.32 293.427 L 687.32 222.927 L 687.32 222.927 Q 687.32 220.377 688.97 218.727 L 688.97 218.727 L 688.97 218.727 Q 690.621 217.077 693.171 217.077 L 693.171 217.077 L 693.171 217.077 Q 695.72 217.077 697.296 218.727 L 697.296 218.727 L 697.296 218.727 Q 698.871 220.377 698.871 222.927 L 698.871 222.927 L 698.871 226.227 L 698.871 226.227 Q 703.07 221.427 708.845 218.802 L 708.845 218.802 L 708.845 218.802 Q 714.621 216.177 721.371 216.177 L 721.371 216.177 L 721.371 216.177 Q 729.621 216.177 736.22 219.927 L 736.22 219.927 L 736.22 219.927 Q 742.82 223.677 746.72 230.427 L 746.72 230.427 L 746.72 230.427 Q 751.07 223.677 758.046 219.927 L 758.046 219.927 L 758.046 219.927 Q 765.02 216.177 773.72 216.177 L 773.72 216.177 Z  M 866.72 216.327 L 866.72 216.327 Q 878.421 216.327 887.945 221.802 L 887.945 221.802 L 887.945 221.802 Q 897.47 227.277 902.945 236.877 L 902.945 236.877 L 902.945 236.877 Q 908.421 246.477 908.421 258.177 L 908.421 258.177 L 908.421 293.427 L 908.421 293.427 Q 908.421 295.827 906.77 297.477 L 906.77 297.477 L 906.77 297.477 Q 905.121 299.127 902.57 299.127 L 902.57 299.127 L 902.57 299.127 Q 900.02 299.127 898.371 297.552 L 898.371 297.552 L 898.371 297.552 Q 896.72 295.977 896.72 293.427 L 896.72 293.427 L 896.72 284.427 L 896.72 284.427 Q 891.47 291.627 883.371 295.752 L 883.371 295.752 L 883.371 295.752 Q 875.27 299.877 865.52 299.877 L 865.52 299.877 L 865.52 299.877 Q 854.121 299.877 844.895 294.402 L 844.895 294.402 L 844.895 294.402 Q 835.671 288.927 830.345 279.402 L 830.345 279.402 L 830.345 279.402 Q 825.02 269.877 825.02 258.177 L 825.02 258.177 L 825.02 258.177 Q 825.02 246.477 830.496 236.877 L 830.496 236.877 L 830.496 236.877 Q 835.97 227.277 845.496 221.802 L 845.496 221.802 L 845.496 221.802 Q 855.02 216.327 866.72 216.327 L 866.72 216.327 Z  M 866.72 289.377 L 866.72 289.377 Q 875.27 289.377 882.171 285.327 L 882.171 285.327 L 882.171 285.327 Q 889.07 281.277 893.046 274.152 L 893.046 274.152 L 893.046 274.152 Q 897.02 267.027 897.02 258.177 L 897.02 258.177 L 897.02 258.177 Q 897.02 249.327 893.046 242.202 L 893.046 242.202 L 893.046 242.202 Q 889.07 235.077 882.171 230.952 L 882.171 230.952 L 882.171 230.952 Q 875.27 226.827 866.72 226.827 L 866.72 226.827 L 866.72 226.827 Q 858.171 226.827 851.195 230.952 L 851.195 230.952 L 851.195 230.952 Q 844.22 235.077 840.246 242.202 L 840.246 242.202 L 840.246 242.202 Q 836.27 249.327 836.27 258.177 L 836.27 258.177 L 836.27 258.177 Q 836.27 267.027 840.246 274.152 L 840.246 274.152 L 840.246 274.152 Q 844.22 281.277 851.195 285.327 L 851.195 285.327 L 851.195 285.327 Q 858.171 289.377 866.72 289.377 L 866.72 289.377 Z " fill-rule="evenodd" fill="currentColor"/><path d=" M 366.465 264.527 L 353.063 258.921 C 352.821 258.818 352.545 258.766 352.286 258.766 L 347.198 258.714 L 343.835 257.3 L 315.616 257.3 C 310.076 257.32 305.006 254.189 302.542 249.228 C 302.283 248.71 302.49 248.089 303.008 247.848 C 303.525 247.589 304.146 247.796 304.387 248.313 C 306.497 252.573 310.846 255.262 315.599 255.247 L 353.183 255.247 C 354.201 255.247 355.063 254.523 355.219 253.522 C 355.391 252.522 354.805 251.556 353.856 251.228 L 311.891 236.567 C 310.511 233.342 305.422 222.941 297.126 222.941 C 292.745 222.941 289.916 225.028 288.778 226.046 L 282.396 227.391 C 281.516 227.581 280.861 228.305 280.757 229.202 C 280.671 230.099 281.154 230.944 281.982 231.306 L 290.623 235.153 L 290.468 245.295 C 290.468 245.623 290.537 245.933 290.675 246.226 C 293.09 251.228 296.263 255.799 300.127 259.801 C 303.991 263.803 308.441 267.131 313.374 269.719 L 317.514 271.892 C 317.514 271.892 317.531 271.892 317.531 271.909 C 317.548 271.909 317.548 271.927 317.548 271.927 L 320.791 273.531 L 321.015 273.634 L 318.721 278.86 L 311.787 278.86 C 310.649 278.86 309.717 279.792 309.717 280.93 C 309.717 282.069 310.649 283 311.787 283 L 334.589 283 C 335.728 283 336.659 282.069 336.659 280.93 C 336.659 279.792 335.728 278.86 334.589 278.86 L 332.433 278.86 L 335.435 272.496 C 335.883 271.53 335.538 270.391 334.624 269.839 L 330.381 267.304 C 328.88 267.925 327.431 268.667 326.052 269.529 L 330.898 272.427 L 327.863 278.86 L 323.275 278.86 L 325.638 273.479 C 326.086 272.461 325.655 271.288 324.654 270.788 L 324.361 270.65 L 322.274 269.615 C 328.052 265.217 335.124 262.819 342.42 262.802 L 351.855 262.888 L 356.926 265.01 L 364.878 268.339 C 365.93 268.787 367.137 268.287 367.586 267.235 C 367.896 266.511 367.741 265.7 367.275 265.131 C 367.051 264.872 366.775 264.665 366.465 264.527 L 366.465 264.527 Z  M 462.86 89.078 C 457.139 109.946 445.654 126.052 431.647 138.584 C 412.579 143.412 393.001 137.484 393.001 137.484 C 390.755 136.965 388.489 138.264 387.803 140.465 C 387.117 142.666 388.244 145.023 390.387 145.872 C 390.387 145.872 402.489 149.788 417.891 149.309 C 409.051 155.245 399.658 160.312 389.842 164.438 C 366.871 174.18 347.861 177.771 338.267 179.149 C 362.84 145.559 398.524 116.084 445.812 101.871 C 448.163 101.336 449.654 99.019 449.166 96.658 C 448.678 94.297 446.391 92.761 444.021 93.202 C 443.742 93.222 443.465 93.267 443.194 93.338 C 394.669 107.917 357.867 138.048 332.357 172.279 C 332.269 164.112 333.818 151.324 342.395 136.934 C 356.112 113.937 388.174 90.332 462.86 89.083 L 462.86 89.078 L 462.86 89.078 Z  M 279.551 216.417 L 367.562 216.417 C 377.327 216.417 385.164 224.254 385.164 234.019 L 385.164 273.624 C 385.164 283.389 377.327 291.226 367.562 291.226 L 279.551 291.226 C 269.786 291.226 261.949 283.389 261.949 273.624 L 261.949 234.019 C 261.949 224.254 269.786 216.417 279.551 216.417 L 279.551 216.417 Z  M 468.774 80 C 387.743 80 350.699 105.8 334.831 132.393 C 320.41 156.578 323.556 179.892 324.247 184.099 C 322.001 187.479 319.845 190.919 317.783 194.414 L 287.934 194.414 C 285.514 194.533 283.621 196.597 283.74 199.021 C 283.859 201.442 285.923 203.334 288.348 203.215 L 358.756 203.215 C 360.34 203.233 361.815 202.405 362.624 201.032 C 363.415 199.66 363.415 197.97 362.624 196.597 C 361.815 195.224 360.336 194.396 358.756 194.414 L 328.089 194.414 C 329.207 192.592 330.342 190.718 331.53 188.913 C 337.51 188.297 363.795 185.045 393.27 172.548 C 426.604 158.422 463.027 132.327 473.034 85.364 C 473.328 84.068 473.017 82.708 472.189 81.668 C 471.357 80.63 470.104 80.018 468.774 80 L 468.774 80 Z  M 279.551 207.616 C 265.029 207.616 253.148 219.497 253.148 234.019 L 253.148 273.624 C 253.148 288.146 265.029 300.027 279.551 300.027 L 367.562 300.027 C 382.084 300.027 393.965 288.146 393.965 273.624 L 393.965 234.019 C 393.965 219.497 382.084 207.616 367.562 207.616 L 279.551 207.616 L 279.551 207.616 Z " fill-rule="evenodd" fill="currentColor"/></g></svg>
